<?xml version="1.0" encoding="UTF-8" standalone="no"?>
<svg
   xmlns:dc="http://purl.org/dc/elements/1.1/"
   xmlns:cc="http://creativecommons.org/ns#"
   xmlns:rdf="http://www.w3.org/1999/02/22-rdf-syntax-ns#"
   xmlns:svg="http://www.w3.org/2000/svg"
   xmlns="http://www.w3.org/2000/svg"
   id="svg16"
   version="1.1"
   class="iconAbove"
   viewBox="0 0 344.3076855360405 163"
   data-v-423bf9ae="">
  <metadata
     id="metadata22">
    <rdf:RDF>
      <cc:Work
         rdf:about="">
        <dc:format>image/svg+xml</dc:format>
        <dc:type
           rdf:resource="http://purl.org/dc/dcmitype/StillImage" />
        <dc:title></dc:title>
      </cc:Work>
    </rdf:RDF>
  </metadata>
  <defs
     id="defs20" />
  <!---->
  <!---->
  <!---->
  <g
     transform="matrix(5.425138,0,0,5.4298642,1.2477872,85.507515)"
     fill="#000000"
     id="f9153c06-f1ab-4fcd-ace8-35ccea1bac4d"
     data-v-423bf9ae="">
    <path
       style="fill:#008000"
       id="path10"
       d="m 8.09,14.29 v 0 0 q -2.28,0 -2.28,-1.51 v 0 0 q 0,-0.86 1.09,-3.45 v 0 0 Q 7.98,6.75 7.98,5.76 v 0 0 q 0,-0.56 -0.41,-0.8 v 0 0 Q 7.16,4.72 6.37,4.72 v 0 0 q -0.78,0 -1.58,0.14 v 0 0 Q 3.98,5 3.75,5 V 5 5 Q 3.52,5 3.52,4.79 v 0 0 q 0,-0.26 0.96,-0.7 v 0 0 Q 6.34,3.24 8.57,3.24 v 0 0 q 1.76,0 2.64,0.64 v 0 0 q 0.88,0.63 0.88,2.06 v 0 0 q 0,0.85 -0.3,2.12 v 0 0 q -0.31,1.28 -0.6,2.4 v 0 0 q -0.3,1.12 -0.3,1.54 v 0 0 q 0,0.41 0.16,0.58 v 0 0 q 0.2,0.2 0.76,0.2 v 0 0 q 0.35,0 0.4,0.08 v 0 0 q 0.04,0.07 0.04,0.16 v 0 0 q 0,0.31 -0.29,0.51 v 0 0 q -1.08,0.76 -3.87,0.76 z M 4.01,9.34 h 0.1 L 5.86,9.3 v 0 q 0.48,0 0.48,0.28 v 0 0 q 0,0.2 -0.23,0.31 v 0 0 q -0.79,0.4 -2.73,0.51 v 0 0 q -0.56,1.1 -0.56,1.93 v 0 0 q 0,0.36 0.1,0.68 v 0 0 q 0.09,0.31 0.09,0.44 v 0 0 q 0,0.37 -0.45,0.49 v 0 0 Q 2.1,14.07 1.21,14.07 v 0 0 q -0.88,0 -1.16,-0.16 v 0 0 q -0.28,-0.16 -0.28,-0.57 v 0 0 q 0,-0.77 0.45,-1.69 v 0 0 Q 0.66,10.73 1.36,9.88 v 0 0 Q 2.06,9.04 2.91,8.22 v 0 0 Q 3.75,7.41 4.55,6.82 v 0 0 Q 6.33,5.5 6.97,5.5 v 0 0 q 0.3,0 0.3,0.18 v 0 0 q 0,0.18 -0.29,0.4 v 0 0 Q 6.37,6.52 5.52,7.43 v 0 0 Q 4.68,8.34 4.01,9.34 Z m 12.94,4.14 v 0 0 q -2,0.68 -2.55,0.68 v 0 0 q -0.55,0 -0.89,-0.23 v 0 0 Q 13.17,13.7 13.17,13.36 v 0 0 q 0,-0.26 0.9,-2.75 v 0 0 q 1.69,-4.74 1.69,-6.12 v 0 -0.26 0 q 0,-0.34 0.66,-0.34 v 0 h 1.78 l 1.38,-0.02 v 0 q 0.18,0 0.26,0.11 v 0 0 q 0.09,0.1 0.09,0.23 v 0 0 q 0,0.64 -1.25,3.98 v 0 -0.01 0 q 0.6,-0.67 1.44,-1.05 v 0 0 q 0.85,-0.37 1.82,-0.37 v 0 0 q 2.85,0 2.85,2.67 v 0 0 q 0,1.02 -0.5,1.97 v 0 0 q -0.51,0.95 -1.38,1.66 v 0 0 q 2.25,-0.2 3.51,-0.89 v 0 0 q 0.19,-0.1 0.32,-0.1 v 0 0 q 0.27,0 0.27,0.21 v 0 0 q 0,0.22 -0.24,0.39 v 0 0 q -0.9,0.63 -2.76,1.1 v 0 0 Q 22.14,14.25 20,14.26 v 0 0 q -0.34,0.03 -0.75,0.03 v 0 0 q -0.41,0 -1.13,-0.22 v 0 0 Q 17.4,13.86 16.95,13.48 Z M 20.03,8.5 v 0 0 q -1.29,0 -2.15,1.97 v 0 0 q -0.39,0.9 -0.39,1.46 v 0 0 q 0,0.56 0.18,0.77 v 0 0 q 0.19,0.21 0.74,0.21 v 0 0 q 0.55,0 1.19,-0.51 v 0 0 q 0.64,-0.51 1.03,-1.28 v 0 0 q 0.39,-0.77 0.39,-1.39 v 0 0 q 0,-0.62 -0.27,-0.93 v 0 0 Q 20.47,8.5 20.03,8.5 Z m 11.03,4.05 v 0 0 q 1.29,0 2.15,-1.97 v 0 0 q 0.4,-0.9 0.4,-1.46 v 0 0 q 0,-0.56 -0.19,-0.77 v 0 0 Q 33.23,8.13 32.68,8.13 v 0 0 q -0.55,0 -1.19,0.51 v 0 0 q -0.64,0.51 -1.03,1.29 v 0 0 q -0.39,0.77 -0.39,1.39 v 0 0 q 0,0.62 0.27,0.92 v 0 0 q 0.28,0.31 0.72,0.31 z m 3.56,-5.79 v 0 l 3.13,0.14 v 0 q 0.18,0 0.26,0.11 v 0 0 q 0.09,0.11 0.09,0.24 v 0 0 q 0,0.5 -0.41,1.59 v 0 0 Q 37.28,9.93 36.86,11 v 0 0 q -0.41,1.07 -0.41,1.41 v 0 0 q 0,0.35 0.11,0.44 v 0 0 q 0.1,0.1 0.4,0.1 v 0 0 q 0.3,0 1.1,-0.29 v 0 0 q 0.8,-0.29 1.08,-0.44 v 0 0 q 0.28,-0.15 0.43,-0.15 v 0 0 q 0.27,0 0.27,0.23 v 0 0 q 0,0.51 -2.05,1.33 v 0 0 q -0.69,0.28 -1.67,0.47 v 0 0 q -0.97,0.19 -1.97,0.19 v 0 0 q -1.68,0 -2.02,-1.07 v 0 0 q -1.07,1.07 -2.87,1.07 v 0 0 q -1.24,0 -2.09,-0.6 v 0 0 q -0.93,-0.65 -0.93,-2.04 v 0 0 q 0,-1.47 0.86,-2.71 v 0 0 q 0.95,-1.37 2.55,-1.89 v 0 0 q 0.88,-0.29 1.89,-0.29 v 0 0 q 1.55,0 2.41,0.77 v 0 0 Q 33.96,7.49 33.96,7.4 v 0 L 33.95,7.1 v 0 q 0,-0.34 0.67,-0.34 z m 8.86,7.52 v 0 0 q -0.17,0.01 -0.51,0.01 v 0 0 q -1.57,0 -2.96,-0.3 v 0 0 Q 38.62,13.7 38.36,13.31 v 0 0 Q 38.28,13.19 38.28,13 v 0 0 q 0,-0.18 0.44,-0.59 v 0 0 Q 39.16,12 39.32,12 v 0 0 q 0.16,0 0.34,0.12 v 0 0 q 0.17,0.12 0.38,0.29 v 0 0 q 0.22,0.17 0.48,0.35 v 0 0 q 0.62,0.41 1.49,0.41 v 0 0 q 0.35,0 0.57,-0.18 v 0 0 q 0.21,-0.18 0.21,-0.45 v 0 0 q 0,-0.27 -0.18,-0.47 v 0 0 q -0.18,-0.2 -0.47,-0.34 v 0 0 q -0.29,-0.15 -0.64,-0.3 v 0 0 q -0.35,-0.14 -0.7,-0.32 v 0 0 q -0.35,-0.17 -0.65,-0.38 v 0 0 Q 39.5,10.27 39.5,9.59 v 0 0 q 0,-0.68 0.42,-1.17 v 0 0 q 0.41,-0.5 1.04,-0.8 v 0 0 q 0.63,-0.31 1.42,-0.51 v 0 0 q 1.4,-0.35 2.64,-0.35 v 0 0 q 1.24,0 2.31,0.13 v 0 0 q 1.07,0.12 1.47,0.37 v 0 0 q 0.11,0.06 0.11,0.32 v 0 0 q 0,0.27 -0.18,0.76 v 0 0 q -0.19,0.49 -0.47,0.9 v 0 0 q -0.29,0.41 -0.51,0.41 v 0 0 q -0.09,0 -0.15,-0.07 v 0 0 Q 46.95,8.8 46.34,8.38 v 0 0 Q 45.73,7.96 45.01,7.96 v 0 0 q -0.55,0 -0.78,0.22 v 0 0 Q 43.99,8.4 43.99,8.64 v 0 0 q 0,0.24 0.26,0.46 v 0 0 q 0.27,0.22 0.66,0.4 v 0 0 q 0.39,0.17 0.85,0.41 v 0 0 q 0.46,0.23 0.86,0.48 v 0 0 q 0.39,0.24 0.65,0.61 v 0 0 q 0.27,0.36 0.27,0.92 v 0 0 q 0,0.55 -0.41,1.08 v 0 0 q 1.7,-0.35 2.66,-0.85 v 0 0 q 0.16,-0.08 0.28,-0.08 v 0 0 q 0.26,0 0.26,0.26 v 0 0 q 0,0.21 -0.27,0.4 v 0 0 q -0.27,0.18 -0.88,0.43 v 0 0 q -0.62,0.26 -1.47,0.52 v 0 0 q -1.97,0.6 -4.23,0.6 z m 8.29,-7.3 v 0 L 54.86,6.9 v 0 q 0.18,0 0.27,0.11 v 0 0 q 0.08,0.11 0.08,0.31 v 0 0 q 0,0.21 -0.38,1.08 v 0 0 q -0.37,0.88 -0.76,1.86 v 0 0 q -0.38,0.98 -0.38,1.43 v 0 0 q 0,0.85 0.9,0.85 v 0 0 q 0.43,0 0.95,-0.11 v 0 0 q 0.16,-0.58 0.54,-1.54 v 0 0 q 0.97,-2.4 1.17,-3.65 v 0 0 q 0.04,-0.25 0.36,-0.25 v 0 0 q 0.99,0 2.09,-0.04 v 0 0 Q 60.79,6.9 60.96,6.9 v 0 0 q 0.17,0 0.26,0.1 v 0 0 q 0.09,0.09 0.09,0.17 v 0 0 q 0,0.33 -0.42,1.39 v 0 0 q -0.43,1.06 -0.85,2.19 v 0 0 q -0.42,1.13 -0.42,1.65 v 0 0 q 0,0.52 0.46,0.52 v 0 0 q 0.46,0 1.28,-0.25 v 0 0 q 0.81,-0.25 1.14,-0.43 v 0 0 q 0.32,-0.17 0.42,-0.17 v 0 0 q 0.26,0 0.26,0.24 v 0 0 q 0,0.25 -0.37,0.47 v 0 0 Q 62.45,13 61.93,13.23 v 0 0 q -0.52,0.23 -1.24,0.48 v 0 0 q -1.67,0.58 -3.4,0.58 v 0 0 q -1.73,0 -1.95,-0.93 v 0 0 q -0.66,0.27 -1.08,0.42 v 0 0 q -0.43,0.16 -1.18,0.33 v 0 0 q -0.75,0.18 -1.38,0.18 v 0 0 q -2.01,0 -2.01,-1.64 v 0 0 q 0,-0.57 0.22,-1.38 v 0 0 q 0.22,-0.81 0.48,-1.47 v 0 0 Q 51.1,8.06 51.1,7.64 v 0 0 q 0,-0.42 0.12,-0.54 v 0 0 q 0.12,-0.12 0.55,-0.12 z" />
  </g>
  <!---->
  <g
     fill="#000000"
     stroke="none"
     transform="matrix(-3.0998915,-0.0017054,0.00170391,-3.102592,222.41787,106.40252)"
     id="5552f851-f62b-4e9d-8d7d-de7ca3729ae3"
     data-v-423bf9ae="">
    <path
       id="path13"
       d="M 16,26.219 23.496,13.265 H 8.504 Z M 7.496,19.046 0,32 H 14.992 Z M 17.008,32 H 32 L 24.504,19.046 Z M 3.587,2.992 0,9.191 h 7.174 z m 4.688,6.199 h 7.174 L 11.862,2.992 Z M 20.138,2.992 16.551,9.191 h 7.174 z m 4.688,6.199 H 32 L 28.413,2.992 Z" />
  </g>
  <!---->
</svg>
