<svg data-v-423bf9ae="" xmlns="http://www.w3.org/2000/svg" viewBox="0 0 344.3076855360405 60" class="font"><!----><!----><!----><g data-v-423bf9ae="" id="f6e1a054-f4d7-4894-8077-922bded3a2b2" fill="black" transform="matrix(5.42986415966838,0,0,5.42986415966838,1.248874197493933,-17.592759213853036)"><path d="M8.09 14.29L8.09 14.29L8.09 14.29Q5.81 14.29 5.81 12.78L5.81 12.78L5.81 12.78Q5.81 11.92 6.90 9.33L6.90 9.33L6.90 9.33Q7.98 6.75 7.98 5.76L7.98 5.76L7.98 5.76Q7.98 5.20 7.57 4.96L7.57 4.96L7.57 4.96Q7.16 4.72 6.37 4.72L6.37 4.72L6.37 4.72Q5.59 4.72 4.79 4.86L4.79 4.86L4.79 4.86Q3.98 5.00 3.75 5.00L3.75 5.00L3.75 5.00Q3.52 5.00 3.52 4.79L3.52 4.79L3.52 4.79Q3.52 4.53 4.48 4.09L4.48 4.09L4.48 4.09Q6.34 3.24 8.57 3.24L8.57 3.24L8.57 3.24Q10.33 3.24 11.21 3.88L11.21 3.88L11.21 3.88Q12.09 4.51 12.09 5.94L12.09 5.94L12.09 5.94Q12.09 6.79 11.79 8.06L11.79 8.06L11.79 8.06Q11.48 9.34 11.19 10.46L11.19 10.46L11.19 10.46Q10.89 11.58 10.89 12.00L10.89 12.00L10.89 12.00Q10.89 12.41 11.05 12.58L11.05 12.58L11.05 12.58Q11.25 12.78 11.81 12.78L11.81 12.78L11.81 12.78Q12.16 12.78 12.21 12.86L12.21 12.86L12.21 12.86Q12.25 12.93 12.25 13.02L12.25 13.02L12.25 13.02Q12.25 13.33 11.96 13.53L11.96 13.53L11.96 13.53Q10.88 14.29 8.09 14.29ZM4.01 9.34L4.11 9.34L5.86 9.30L5.86 9.30Q6.34 9.30 6.34 9.58L6.34 9.58L6.34 9.58Q6.34 9.78 6.11 9.89L6.11 9.89L6.11 9.89Q5.32 10.29 3.38 10.40L3.38 10.40L3.38 10.40Q2.82 11.50 2.82 12.33L2.82 12.33L2.82 12.33Q2.82 12.69 2.92 13.01L2.92 13.01L2.92 13.01Q3.01 13.32 3.01 13.45L3.01 13.45L3.01 13.45Q3.01 13.82 2.56 13.94L2.56 13.94L2.56 13.94Q2.10 14.07 1.21 14.07L1.21 14.07L1.21 14.07Q0.33 14.07 0.05 13.91L0.05 13.91L0.05 13.91Q-0.23 13.75-0.23 13.34L-0.23 13.34L-0.23 13.34Q-0.23 12.57 0.22 11.65L0.22 11.65L0.22 11.65Q0.66 10.73 1.36 9.88L1.36 9.88L1.36 9.88Q2.06 9.04 2.91 8.22L2.91 8.22L2.91 8.22Q3.75 7.41 4.55 6.82L4.55 6.82L4.55 6.82Q6.33 5.50 6.97 5.50L6.97 5.50L6.97 5.50Q7.27 5.50 7.27 5.68L7.27 5.68L7.27 5.68Q7.27 5.86 6.98 6.08L6.98 6.08L6.98 6.08Q6.37 6.52 5.52 7.43L5.52 7.43L5.52 7.43Q4.68 8.34 4.01 9.34L4.01 9.34ZM16.95 13.48L16.95 13.48L16.95 13.48Q14.95 14.16 14.40 14.16L14.40 14.16L14.40 14.16Q13.85 14.16 13.51 13.93L13.51 13.93L13.51 13.93Q13.17 13.70 13.17 13.36L13.17 13.36L13.17 13.36Q13.17 13.10 14.07 10.61L14.07 10.61L14.07 10.61Q15.76 5.87 15.76 4.49L15.76 4.49L15.76 4.23L15.76 4.23Q15.76 3.89 16.42 3.89L16.42 3.89L18.20 3.89L19.58 3.87L19.58 3.87Q19.76 3.87 19.84 3.98L19.84 3.98L19.84 3.98Q19.93 4.08 19.93 4.21L19.93 4.21L19.93 4.21Q19.93 4.85 18.68 8.19L18.68 8.19L18.68 8.18L18.68 8.18Q19.28 7.51 20.12 7.13L20.12 7.13L20.12 7.13Q20.97 6.76 21.94 6.76L21.94 6.76L21.94 6.76Q24.79 6.76 24.79 9.43L24.79 9.43L24.79 9.43Q24.79 10.45 24.29 11.40L24.29 11.40L24.29 11.40Q23.78 12.35 22.91 13.06L22.91 13.06L22.91 13.06Q25.16 12.86 26.42 12.17L26.42 12.17L26.42 12.17Q26.61 12.07 26.74 12.07L26.74 12.07L26.74 12.07Q27.01 12.07 27.01 12.28L27.01 12.28L27.01 12.28Q27.01 12.50 26.77 12.67L26.77 12.67L26.77 12.67Q25.87 13.30 24.01 13.77L24.01 13.77L24.01 13.77Q22.14 14.25 20.00 14.26L20.00 14.26L20.00 14.26Q19.66 14.29 19.25 14.29L19.25 14.29L19.25 14.29Q18.84 14.29 18.12 14.07L18.12 14.07L18.12 14.07Q17.40 13.86 16.95 13.48ZM20.03 8.50L20.03 8.50L20.03 8.50Q18.74 8.50 17.88 10.47L17.88 10.47L17.88 10.47Q17.49 11.37 17.49 11.93L17.49 11.93L17.49 11.93Q17.49 12.49 17.67 12.70L17.67 12.70L17.67 12.70Q17.86 12.91 18.41 12.91L18.41 12.91L18.41 12.91Q18.96 12.91 19.60 12.40L19.60 12.40L19.60 12.40Q20.24 11.89 20.63 11.12L20.63 11.12L20.63 11.12Q21.02 10.35 21.02 9.73L21.02 9.73L21.02 9.73Q21.02 9.11 20.75 8.80L20.75 8.80L20.75 8.80Q20.47 8.50 20.03 8.50ZM31.06 12.55L31.06 12.55L31.06 12.55Q32.35 12.55 33.21 10.58L33.21 10.58L33.21 10.58Q33.61 9.68 33.61 9.12L33.61 9.12L33.61 9.12Q33.61 8.56 33.42 8.35L33.42 8.35L33.42 8.35Q33.23 8.13 32.68 8.13L32.68 8.13L32.68 8.13Q32.13 8.13 31.49 8.64L31.49 8.64L31.49 8.64Q30.85 9.15 30.46 9.93L30.46 9.93L30.46 9.93Q30.07 10.70 30.07 11.32L30.07 11.32L30.07 11.32Q30.07 11.94 30.34 12.24L30.34 12.24L30.34 12.24Q30.62 12.55 31.06 12.55ZM34.62 6.76L34.62 6.76L37.75 6.90L37.75 6.90Q37.93 6.90 38.01 7.01L38.01 7.01L38.01 7.01Q38.10 7.12 38.10 7.25L38.10 7.25L38.10 7.25Q38.10 7.75 37.69 8.84L37.69 8.84L37.69 8.84Q37.28 9.93 36.86 11.00L36.86 11.00L36.86 11.00Q36.45 12.07 36.45 12.41L36.45 12.41L36.45 12.41Q36.45 12.76 36.56 12.85L36.56 12.85L36.56 12.85Q36.66 12.95 36.96 12.95L36.96 12.95L36.96 12.95Q37.26 12.95 38.06 12.66L38.06 12.66L38.06 12.66Q38.86 12.37 39.14 12.22L39.14 12.22L39.14 12.22Q39.42 12.07 39.57 12.07L39.57 12.07L39.57 12.07Q39.84 12.07 39.84 12.30L39.84 12.30L39.84 12.30Q39.84 12.81 37.79 13.63L37.79 13.63L37.79 13.63Q37.10 13.91 36.12 14.10L36.12 14.10L36.12 14.10Q35.15 14.29 34.15 14.29L34.15 14.29L34.15 14.29Q32.47 14.29 32.13 13.22L32.13 13.22L32.13 13.22Q31.06 14.29 29.26 14.29L29.26 14.29L29.26 14.29Q28.02 14.29 27.17 13.69L27.17 13.69L27.17 13.69Q26.24 13.04 26.24 11.65L26.24 11.65L26.24 11.65Q26.24 10.18 27.10 8.94L27.10 8.94L27.10 8.94Q28.05 7.57 29.65 7.05L29.65 7.05L29.65 7.05Q30.53 6.76 31.54 6.76L31.54 6.76L31.54 6.76Q33.09 6.76 33.95 7.53L33.95 7.53L33.95 7.53Q33.96 7.49 33.96 7.40L33.96 7.40L33.95 7.10L33.95 7.10Q33.95 6.76 34.62 6.76ZM43.48 14.28L43.48 14.28L43.48 14.28Q43.31 14.29 42.97 14.29L42.97 14.29L42.97 14.29Q41.40 14.29 40.01 13.99L40.01 13.99L40.01 13.99Q38.62 13.70 38.36 13.31L38.36 13.31L38.36 13.31Q38.28 13.19 38.28 13.00L38.28 13.00L38.28 13.00Q38.28 12.82 38.72 12.41L38.72 12.41L38.72 12.41Q39.16 12.00 39.32 12.00L39.32 12.00L39.32 12.00Q39.48 12.00 39.66 12.12L39.66 12.12L39.66 12.12Q39.83 12.24 40.04 12.41L40.04 12.41L40.04 12.41Q40.26 12.58 40.52 12.76L40.52 12.76L40.52 12.76Q41.14 13.17 42.01 13.17L42.01 13.17L42.01 13.17Q42.36 13.17 42.58 12.99L42.58 12.99L42.58 12.99Q42.79 12.81 42.79 12.54L42.79 12.54L42.79 12.54Q42.79 12.27 42.61 12.07L42.61 12.07L42.61 12.07Q42.43 11.87 42.14 11.73L42.14 11.73L42.14 11.73Q41.85 11.58 41.50 11.43L41.50 11.43L41.50 11.43Q41.15 11.29 40.80 11.11L40.80 11.11L40.80 11.11Q40.45 10.94 40.15 10.73L40.15 10.73L40.15 10.73Q39.50 10.27 39.50 9.59L39.50 9.59L39.50 9.59Q39.50 8.91 39.92 8.42L39.92 8.42L39.92 8.42Q40.33 7.92 40.96 7.62L40.96 7.62L40.96 7.62Q41.59 7.31 42.38 7.11L42.38 7.11L42.38 7.11Q43.78 6.76 45.02 6.76L45.02 6.76L45.02 6.76Q46.26 6.76 47.33 6.89L47.33 6.89L47.33 6.89Q48.40 7.01 48.80 7.26L48.80 7.26L48.80 7.26Q48.91 7.32 48.91 7.58L48.91 7.58L48.91 7.58Q48.91 7.85 48.73 8.34L48.73 8.34L48.73 8.34Q48.54 8.83 48.26 9.24L48.26 9.24L48.26 9.24Q47.97 9.65 47.75 9.65L47.75 9.65L47.75 9.65Q47.66 9.65 47.60 9.58L47.60 9.58L47.60 9.58Q46.95 8.80 46.34 8.38L46.34 8.38L46.34 8.38Q45.73 7.96 45.01 7.96L45.01 7.96L45.01 7.96Q44.46 7.96 44.23 8.18L44.23 8.18L44.23 8.18Q43.99 8.40 43.99 8.64L43.99 8.64L43.99 8.64Q43.99 8.88 44.25 9.10L44.25 9.10L44.25 9.10Q44.52 9.32 44.91 9.50L44.91 9.50L44.91 9.50Q45.30 9.67 45.76 9.91L45.76 9.91L45.76 9.91Q46.22 10.14 46.62 10.39L46.62 10.39L46.62 10.39Q47.01 10.63 47.27 11.00L47.27 11.00L47.27 11.00Q47.54 11.36 47.54 11.92L47.54 11.92L47.54 11.92Q47.54 12.47 47.13 13.00L47.13 13.00L47.13 13.00Q48.83 12.65 49.79 12.15L49.79 12.15L49.79 12.15Q49.95 12.07 50.07 12.07L50.07 12.07L50.07 12.07Q50.33 12.07 50.33 12.33L50.33 12.33L50.33 12.33Q50.33 12.54 50.06 12.73L50.06 12.73L50.06 12.73Q49.79 12.91 49.18 13.16L49.18 13.16L49.18 13.16Q48.56 13.42 47.71 13.68L47.71 13.68L47.71 13.68Q45.74 14.28 43.48 14.28ZM51.77 6.98L51.77 6.98L54.86 6.90L54.86 6.90Q55.04 6.90 55.13 7.01L55.13 7.01L55.13 7.01Q55.21 7.12 55.21 7.32L55.21 7.32L55.21 7.32Q55.21 7.53 54.83 8.40L54.83 8.40L54.83 8.40Q54.46 9.28 54.07 10.26L54.07 10.26L54.07 10.26Q53.69 11.24 53.69 11.69L53.69 11.69L53.69 11.69Q53.69 12.54 54.59 12.54L54.59 12.54L54.59 12.54Q55.02 12.54 55.54 12.43L55.54 12.43L55.54 12.43Q55.70 11.85 56.08 10.89L56.08 10.89L56.08 10.89Q57.05 8.49 57.25 7.24L57.25 7.24L57.25 7.24Q57.29 6.99 57.61 6.99L57.61 6.99L57.61 6.99Q58.60 6.99 59.70 6.95L59.70 6.95L59.70 6.95Q60.79 6.90 60.96 6.90L60.96 6.90L60.96 6.90Q61.13 6.90 61.22 7.00L61.22 7.00L61.22 7.00Q61.31 7.09 61.31 7.17L61.31 7.17L61.31 7.17Q61.31 7.50 60.89 8.56L60.89 8.56L60.89 8.56Q60.46 9.62 60.04 10.75L60.04 10.75L60.04 10.75Q59.62 11.88 59.62 12.40L59.62 12.40L59.62 12.40Q59.62 12.92 60.08 12.92L60.08 12.92L60.08 12.92Q60.54 12.92 61.36 12.67L61.36 12.67L61.36 12.67Q62.17 12.42 62.50 12.24L62.50 12.24L62.50 12.24Q62.82 12.07 62.92 12.07L62.92 12.07L62.92 12.07Q63.18 12.07 63.18 12.31L63.18 12.31L63.18 12.31Q63.18 12.56 62.81 12.78L62.81 12.78L62.81 12.78Q62.45 13.00 61.93 13.23L61.93 13.23L61.93 13.23Q61.41 13.46 60.69 13.71L60.69 13.71L60.69 13.71Q59.02 14.29 57.29 14.29L57.29 14.29L57.29 14.29Q55.56 14.29 55.34 13.36L55.34 13.36L55.34 13.36Q54.68 13.63 54.26 13.78L54.26 13.78L54.26 13.78Q53.83 13.94 53.08 14.11L53.08 14.11L53.08 14.11Q52.33 14.29 51.70 14.29L51.70 14.29L51.70 14.29Q49.69 14.29 49.69 12.65L49.69 12.65L49.69 12.65Q49.69 12.08 49.91 11.27L49.91 11.27L49.91 11.27Q50.13 10.46 50.39 9.80L50.39 9.80L50.39 9.80Q51.10 8.06 51.10 7.64L51.10 7.64L51.10 7.64Q51.10 7.22 51.22 7.10L51.22 7.10L51.22 7.10Q51.34 6.98 51.77 6.98Z"></path></g><!----><!----></svg>